<svg width="95" height="48" viewBox="0 0 95 48" fill="none" xmlns="http://www.w3.org/2000/svg">
<path d="M21.8088 22.2382V31.017C21.8088 31.1593 21.7522 31.2958 21.6516 31.3964C21.5511 31.497 21.4146 31.5535 21.2724 31.5535H18.5019C18.3597 31.5535 18.2233 31.4969 18.1227 31.3963C18.0221 31.2957 17.9656 31.1593 17.9655 31.017V16.7379C17.9655 16.5956 18.022 16.4591 18.1226 16.3585C18.2232 16.2579 18.3597 16.2013 18.5019 16.2013H21.0657C21.2079 16.2013 21.3443 16.2579 21.4449 16.3585C21.5455 16.4591 21.602 16.5956 21.602 16.7379V18.7488C21.602 18.7488 22.5185 15.8803 25.2383 15.8803C25.2383 15.8803 27.9286 15.555 29.0224 18.5418C29.0224 18.5418 29.9389 15.8803 32.7178 15.8803C32.7178 15.8803 36.8506 15.6345 36.8506 19.912L36.882 22.2678V31.0466C36.882 31.1889 36.8255 31.3253 36.7249 31.426C36.6243 31.5266 36.4879 31.5831 36.3456 31.5831H33.5749C33.4327 31.583 33.2963 31.5265 33.1957 31.4259C33.0951 31.3253 33.0386 31.1888 33.0386 31.0466L33.0132 21.4694C33.092 19.3007 31.3381 19.4585 31.3381 19.4585C29.1308 19.498 29.3431 22.2678 29.3431 22.2678V31.0466C29.3431 31.1889 29.2866 31.3253 29.186 31.426C29.0854 31.5266 28.949 31.5831 28.8067 31.5831H26.0363C25.8941 31.583 25.7577 31.5265 25.6571 31.4259C25.5565 31.3253 25.5 31.1888 25.4999 31.0466V21.6861C25.4999 21.6861 25.6619 19.4386 23.6909 19.4386C23.6911 19.4386 21.7399 19.1824 21.8088 22.2382V22.2382ZM93.223 22.212V30.9905C93.223 31.1328 93.1665 31.2692 93.0659 31.3698C92.9653 31.4704 92.8289 31.527 92.6866 31.527L89.8053 31.5829C89.663 31.5828 89.5266 31.5263 89.4261 31.4256C89.3255 31.325 89.269 31.1886 89.2689 31.0463V21.6861C89.2689 21.6861 89.4309 19.4386 87.4601 19.4386C87.4601 19.4386 85.5777 19.3459 85.5777 22.8696V31.0167C85.5777 31.159 85.5211 31.2955 85.4206 31.3961C85.32 31.4967 85.1836 31.5532 85.0413 31.5533H82.2707C82.1284 31.5532 81.992 31.4967 81.8914 31.3961C81.7909 31.2955 81.7343 31.159 81.7343 31.0167V16.7379C81.7343 16.5956 81.7909 16.4592 81.8914 16.3586C81.992 16.258 82.1284 16.2014 82.2707 16.2013H84.8344C84.9767 16.2013 85.1131 16.2579 85.2137 16.3585C85.3143 16.4591 85.3708 16.5956 85.3708 16.7379V18.7488C85.3708 18.7488 86.2873 15.8803 89.0071 15.8803C89.0071 15.8803 91.9206 15.4382 92.9019 18.4862C92.9021 18.4859 93.223 19.1147 93.223 22.212ZM73.2193 15.8212C69.6765 15.8212 66.8041 18.8079 66.8041 23.8351C66.8041 28.2611 69.0213 31.849 73.2193 31.849C77.1808 31.849 79.6346 28.2611 79.6346 23.8351C79.6346 18.8966 76.7624 15.8212 73.2193 15.8212V15.8212ZM75.4555 24.0125C75.4555 25.9051 75.219 26.9105 75.219 26.9105C74.8825 28.9112 73.4305 28.9141 73.2165 28.9034C72.9854 28.9127 71.5212 28.8918 71.2183 26.9105C71.2183 26.9105 70.9817 25.9051 70.9817 24.0125V23.6972C70.9817 21.8046 71.2183 20.7991 71.2183 20.7991C71.5212 18.8178 72.9857 18.797 73.2165 18.806C73.4305 18.7954 74.8825 18.798 75.219 20.7991C75.219 20.7991 75.4555 21.8046 75.4555 23.6972V24.0125ZM65.1961 18.7289V16.6802C65.196 16.5379 65.1395 16.4014 65.0389 16.3008C64.9383 16.2002 64.8019 16.1437 64.6597 16.1436H55.5022C55.3599 16.1436 55.2235 16.2001 55.1229 16.3008C55.0223 16.4014 54.9658 16.5379 54.9658 16.6802V18.713C54.9658 18.8553 55.0224 18.9918 55.1229 19.0924C55.2235 19.193 55.3599 19.2495 55.5022 19.2496H60.2789L54.625 27.454C54.625 27.454 54.4022 27.7866 54.4095 28.154V30.6496C54.4095 30.6496 54.3726 31.5053 55.3428 31.0087C55.3428 31.0087 57.0659 29.9673 59.9553 29.9673C59.9553 29.9673 62.8088 29.9318 64.7113 31.0984C64.7113 31.0984 65.5009 31.4575 65.5009 30.6678V28.4956C65.5009 28.4956 65.5726 27.9207 64.8189 27.5618C64.8189 27.5618 62.6293 26.3591 59.7579 26.5564L65.1961 18.7289ZM15.8273 29L14.96 27.6794C14.684 27.1864 14.7039 26.6342 14.7039 26.6342V20.5427C14.8221 15.2789 8.98822 15.7325 8.98822 15.7325C3.8021 15.7325 3.03606 19.7696 3.03606 19.7696C2.81989 20.5813 3.44853 20.6009 3.44853 20.6009L5.98269 20.8581C5.98269 20.8581 6.41479 20.9569 6.57207 20.4424C6.57207 20.4424 6.90578 18.6811 8.77205 18.6811C10.8027 18.6811 10.7816 20.4244 10.7816 20.4244V21.8838C6.72793 22.0194 4.84936 23.145 4.84936 23.145C2.34641 24.5644 2.50392 27.3837 2.50392 27.3837C2.50392 31.977 6.87929 31.7797 6.87929 31.7797C9.67787 31.7797 11.3334 29.7296 11.3334 29.7296C11.8261 30.5973 12.7328 31.4248 12.7328 31.4248C13.1864 31.9169 13.6592 31.5039 13.6592 31.5039L15.709 29.7494C16.1622 29.414 15.8273 29 15.8273 29ZM8.24511 28.9432C6.92872 28.9432 6.43939 27.6347 6.65792 26.3487C6.87669 25.0627 8.01286 24.052 10.7819 24.0816V24.8635C10.88 28.2791 9.34085 28.9432 8.24511 28.9432ZM52.6433 29L51.7762 27.6794C51.5002 27.1864 51.5199 26.6342 51.5199 26.6342V20.5427C51.6381 15.2789 45.8042 15.7325 45.8042 15.7325C40.6181 15.7325 39.8521 19.7696 39.8521 19.7696C39.6359 20.5813 40.2645 20.6009 40.2645 20.6009L42.7987 20.8581C42.7987 20.8581 43.2308 20.9569 43.3881 20.4424C43.3881 20.4424 43.7218 18.6811 45.5881 18.6811C47.6187 18.6811 47.5976 20.4244 47.5976 20.4244V21.8838C43.5442 22.0194 41.6654 23.145 41.6654 23.145C39.1624 24.5644 39.3199 27.3837 39.3199 27.3837C39.3199 31.977 43.6953 31.7797 43.6953 31.7797C46.4939 31.7797 48.1494 29.7296 48.1494 29.7296C48.6423 30.5973 49.5486 31.4248 49.5486 31.4248C50.0022 31.9169 50.4752 31.5039 50.4752 31.5039L52.5248 29.7494C52.9782 29.414 52.6433 29 52.6433 29V29ZM45.0611 28.9432C43.7447 28.9432 43.2554 27.6347 43.4739 26.3487C43.6927 25.0627 44.8289 24.052 47.5976 24.0816V24.8635C47.696 28.2791 46.1571 28.9432 45.0611 28.9432Z" fill="black"/>
<path d="M59.6188 40.5298C59.6188 40.5298 59.387 40.9332 59.6718 41.0233C59.6718 41.0233 59.9934 41.149 60.3946 40.7766C60.3946 40.7766 63.3199 38.2204 63.3904 33.5665C63.3904 33.5665 63.4119 32.9853 63.1787 32.8263C63.1787 32.8263 62.2622 32.0153 58.9668 32.2621C58.9668 32.2621 56.0942 32.456 54.5259 33.8488C54.5259 33.8488 54.3849 33.972 54.3849 34.1305C54.3849 34.1305 54.3511 34.4728 55.2132 34.3245C55.2132 34.3245 58.0856 33.9188 59.795 34.1305C59.795 34.1305 60.6765 34.2363 60.9231 34.5362C60.9231 34.5362 61.3285 34.8712 61.1168 35.9815C61.1168 35.9819 60.535 38.8024 59.6188 40.5298V40.5298Z" fill="#F3971B"/>
<path d="M59.0411 36.0663C59.0411 36.0663 59.4701 36.6223 58.7779 37.1018C58.7779 37.1018 51.383 43.0185 38.9664 43.0185C38.9664 43.0185 26.1852 43.6492 15.5128 33.9497C15.5128 33.9497 15.1387 33.6211 15.3709 33.3157C15.3709 33.3157 15.5786 33.0346 16.1162 33.3403C16.1162 33.3403 26.1556 39.5979 39.3408 39.5979C39.3408 39.5979 48.5054 39.9527 57.9066 35.931C57.9066 35.931 58.6556 35.5428 59.0411 36.0663Z" fill="#F3971B"/>
</svg>
