<svg width="95" height="48" viewBox="0 0 95 48" fill="none" xmlns="http://www.w3.org/2000/svg">
<path d="M29.3162 22.0757C30.3949 22.0757 31.2693 21.2009 31.2693 20.122C31.2693 19.043 30.3949 18.1684 29.3162 18.1684C28.2374 18.1684 27.3631 19.043 27.3631 20.122C27.3631 21.2009 28.2374 22.0757 29.3162 22.0757V22.0757ZM93.7742 28.7507C93.4771 28.5418 93.2477 28.5071 93.0574 28.9129C89.777 36.0177 84.2491 32.4723 84.7982 32.7843C86.0244 32.2234 89.2493 29.637 88.7618 26.0659C88.4658 23.8834 86.5926 22.9153 84.6043 23.2619C81.1337 23.867 79.8569 27.6105 80.5069 30.9247C80.6206 31.4939 80.8239 31.9633 81.0269 32.4231C77.1049 35.6125 75.5473 29.568 75.3706 28.8457C75.3636 28.807 78.399 26.277 79.2432 20.2481C80.128 13.9295 78.1123 12.779 76.0512 12.8149C72.237 12.8814 71.2063 20.8505 72.591 27.4921C72.475 27.5223 71.9353 27.8213 71.0681 27.8548C70.444 25.8912 67.7776 24.17 67.0798 24.8332C65.3332 26.4924 67.5033 29.7361 69.0303 29.9905C68.113 35.6401 62.3765 34.2409 63.4443 27.1628C65.3124 23.6938 66.7331 18.5356 66.4797 15.4217C66.3898 14.3192 65.5747 12.8422 63.7313 12.9154C60.1857 13.0557 59.8003 21.027 60.2159 26.6846C60.1953 26.5452 59.998 27.3719 58.545 27.783C58.2013 25.8753 55.1297 23.9605 54.4067 24.8811C53.0531 26.6041 55.3989 29.6762 56.51 29.8905C55.5927 35.54 49.8564 34.1408 50.9242 27.0627C52.7923 23.5938 54.2128 18.4357 53.9594 15.3217C53.8695 14.2191 53.0546 12.742 51.211 12.8151C47.6654 12.9556 47.28 20.9268 47.6956 26.5844C47.6748 26.4429 47.4729 27.2968 45.9606 27.7011C45.91 25.2261 42.8272 24.0912 42.0866 24.8809C40.7668 26.2886 42.3889 29.1768 43.8895 29.8905C42.9723 35.54 37.2359 34.1408 38.3038 27.0627C40.1718 23.5938 41.5926 18.4357 41.3389 15.3217C41.2493 14.2191 40.4341 12.742 38.5906 12.8151C35.0451 12.9556 34.7598 21.3276 35.1755 26.985C34.0077 31.9885 30.0913 38.237 30.6001 25.72C30.6504 24.8419 30.7052 24.5085 30.2675 24.1798C29.9395 23.9242 29.1936 24.0472 28.7858 24.0573C28.2903 24.0772 28.166 24.3671 28.0565 24.8054C27.8014 25.9372 27.7555 27.0343 27.7191 28.5313C27.6951 29.2315 27.639 29.5582 27.3693 30.5131C27.1 31.4677 25.5635 33.2126 24.7222 32.9209C23.5551 32.5196 23.938 29.2249 24.1567 26.9612C24.339 25.1723 23.7554 24.369 22.2603 24.0769C21.385 23.8944 20.8532 23.9224 19.9416 23.6351C19.0796 23.3634 18.8846 21.7328 17.046 22.2762C16.0404 22.5736 16.6869 24.7044 16.4452 26.2836C15.2569 34.052 12.7845 34.2654 11.6375 30.4917C16.8034 17.8396 13.1319 12.8517 10.9827 12.8517C8.7443 12.8517 6.18556 14.3936 7.26907 24.2589C6.74223 24.1052 6.58024 24.0224 6.00351 24.0224C2.74176 24.0224 0.519531 26.6591 0.519531 29.9119C0.519531 33.1646 2.74195 35.8016 6.00369 35.8016C7.92919 35.8016 9.28108 34.9259 10.3049 33.5712C10.973 34.5279 11.7864 35.8163 13.274 35.7583C17.708 35.5856 18.9975 26.4903 19.1497 25.983C19.6237 26.0561 20.0721 26.1943 20.5099 26.2674C21.2392 26.377 21.2922 26.6656 21.2757 27.3992C21.0824 33.585 22.2239 35.7509 24.8132 35.7509C26.2558 35.7509 27.5416 34.3335 28.4274 33.32C29.089 34.6855 30.1432 35.7092 31.5575 35.7508C34.9846 35.836 36.2967 30.3737 36.1771 31.0926C36.0832 31.6566 37.2889 35.72 40.817 35.7347C45.1873 35.7531 45.9997 30.9471 46.0965 30.1422C46.1086 29.982 46.114 29.9986 46.0965 30.1422L46.0932 30.1909C47.4806 29.9329 48.1965 29.189 48.1965 29.189C48.1965 29.189 49.3106 35.8095 53.4373 35.7349C57.7227 35.6572 58.5308 31.3129 58.6369 30.4658C58.6509 30.2648 58.6591 30.2883 58.6369 30.4658C58.6363 30.4741 58.6357 30.4823 58.6352 30.4906C60.2833 29.8911 60.7168 29.2893 60.7168 29.2893C60.7168 29.2893 61.6022 35.7782 65.9576 35.8349C69.8388 35.8857 71.2772 31.9112 71.2857 30.2476C71.9403 30.2546 73.1512 29.8592 73.1228 29.8368C73.1228 29.8368 74.5445 35.5102 78.5146 35.8016C80.3786 35.9383 81.7769 34.7527 82.5739 34.2118C84.4471 35.7288 90.6847 37.6665 94.6234 30.9889C95.1793 30.0306 93.984 28.8985 93.7742 28.7507V28.7507ZM5.8463 33.5988C3.94327 33.5988 2.72299 31.8392 2.72299 29.9419C2.72299 28.0447 3.84313 26.2851 5.74616 26.2851C6.60251 26.2851 7.07891 26.3793 7.74584 26.9594C7.86678 27.436 8.20954 28.5353 8.37632 29.0345C8.59979 29.7026 8.86561 30.2712 9.13363 30.8901C8.75074 32.4774 7.49549 33.5988 5.8463 33.5988V33.5988ZM10.4837 27.0152C10.4045 26.8891 10.4211 26.9666 10.3326 26.8475C9.98372 25.8985 9.31145 23.7805 9.23359 21.3747C9.1456 18.6533 9.59917 15.4633 10.9363 15.4633C11.8424 15.4633 12.8053 21.9283 10.4835 27.0152H10.4837ZM37.2788 24.1796C37.0642 22.5646 37.0529 15.3652 38.7813 15.5634C39.7355 15.95 38.1762 22.7435 37.2788 24.1796ZM49.8992 24.1796C49.6846 22.5646 49.6734 15.3652 51.4017 15.5634C52.356 15.95 50.7966 22.7435 49.8992 24.1796ZM62.4196 24.2799C62.2047 22.6648 62.1937 15.4653 63.9218 15.6636C64.8761 16.0502 63.3168 22.8439 62.4196 24.2799ZM76.2419 15.1421C77.822 14.9783 77.7569 21.8787 74.5851 26.2352C74.1761 24.6606 73.549 15.6827 76.2419 15.1419V15.1421ZM82.8836 29.9905C82.376 27.4268 83.6874 25.743 85.0393 25.5583C85.5119 25.4829 86.1967 25.789 86.3332 26.3613C86.5578 27.4398 86.3007 29.0397 83.2749 31.0696C83.2793 31.0869 82.9968 30.5615 82.8837 29.9905H82.8836Z" fill="black"/>
</svg>
