<svg width="95" height="48" viewBox="0 0 95 48" fill="none" xmlns="http://www.w3.org/2000/svg">
<path d="M12.2547 9.04395H13.0932C16.004 9.10722 18.8674 10.2779 20.924 12.3503C20.1646 13.1255 19.3894 13.869 18.6459 14.6442C17.4911 13.6 16.0989 12.7932 14.5802 12.5085C12.3338 12.0339 9.91341 12.461 8.03086 13.7424C5.97429 15.0871 4.58216 17.3652 4.28158 19.8014C3.94937 22.206 4.62962 24.7372 6.19577 26.6039C7.69865 28.4232 9.99251 29.5622 12.3655 29.6413C14.5802 29.7679 16.8899 29.0876 18.5035 27.5373C19.7691 26.4457 20.3544 24.7846 20.5443 23.171C17.9182 23.171 15.2921 23.1868 12.666 23.171V19.9121H23.7241C24.2936 23.4083 23.4709 27.3474 20.8132 29.847C19.0414 31.6188 16.5893 32.6629 14.0898 32.8685C11.6694 33.1058 9.16988 32.6471 7.0184 31.4764C4.43978 30.1001 2.38321 27.7746 1.37075 25.0378C0.421562 22.5224 0.405742 19.6748 1.29165 17.1437C2.09846 14.834 3.64879 12.7932 5.64208 11.3695C7.55627 9.96149 9.88177 9.18632 12.2547 9.04395Z" fill="#3780FF"/>
<path d="M75.6934 9.86621H79.0788V32.4568C77.9556 32.4568 76.8166 32.4726 75.6934 32.441C75.7092 24.9266 75.6934 17.3964 75.6934 9.86621V9.86621Z" fill="#38B137"/>
<path d="M31.2548 17.697C33.343 17.3015 35.6052 17.7444 37.3296 18.9942C38.8957 20.1016 39.9873 21.8418 40.3195 23.7401C40.7466 25.9391 40.2088 28.3437 38.785 30.0839C37.2505 32.0297 34.7351 33.0738 32.283 32.9156C30.0366 32.789 27.8535 31.6658 26.5247 29.8307C25.0218 27.8058 24.6579 25.0215 25.4805 22.6486C26.3032 20.1016 28.6287 18.1557 31.2548 17.697V17.697ZM31.7294 20.7027C30.8751 20.9242 30.0841 21.4146 29.5146 22.1107C27.9801 23.9458 28.075 26.9357 29.7677 28.6443C30.7327 29.6251 32.1881 30.0839 33.5328 29.8149C34.7826 29.5934 35.8741 28.755 36.4753 27.6476C37.5194 25.7651 37.2188 23.1706 35.621 21.6994C34.5927 20.7502 33.0899 20.3547 31.7294 20.7027Z" fill="#FA3913"/>
<path d="M48.0232 17.6972C50.412 17.2384 53.0222 17.9028 54.8099 19.5797C57.7207 22.19 58.0371 27.0783 55.5534 30.084C54.0505 31.9824 51.6143 33.0265 49.2097 32.9157C46.9158 32.8525 44.6536 31.7134 43.2931 29.8309C41.7586 27.7585 41.4264 24.911 42.2965 22.4905C43.1666 20.0227 45.4446 18.1401 48.0232 17.6972V17.6972ZM48.4978 20.7029C47.6435 20.9244 46.8526 21.4148 46.283 22.095C44.7643 23.8985 44.8276 26.841 46.4571 28.5653C47.4221 29.5936 48.9249 30.0998 50.3171 29.8151C51.551 29.5778 52.6584 28.7552 53.2595 27.6478C54.2878 25.7494 53.9873 23.155 52.3736 21.6837C51.3454 20.7345 49.8425 20.3549 48.4978 20.7029Z" fill="#FCBD06"/>
<path d="M62.2451 18.6147C64.0643 17.4757 66.4848 17.1593 68.4464 18.1401C69.0634 18.4091 69.5696 18.8678 70.06 19.3266C70.0758 18.8995 70.06 18.4565 70.0758 18.0136C71.1358 18.0294 72.1957 18.0136 73.2714 18.0294V31.9824C73.2556 34.0864 72.7178 36.317 71.1991 37.8515C69.538 39.5442 66.991 40.0663 64.6971 39.7182C62.2451 39.3544 60.1094 37.5667 59.1602 35.3045C60.1094 34.8458 61.106 34.4819 62.0869 34.0548C62.6406 35.352 63.7638 36.4594 65.1717 36.7125C66.5797 36.9656 68.2091 36.6176 69.1267 35.4469C70.1075 34.2446 70.1075 32.5994 70.06 31.1281C69.3323 31.84 68.4939 32.4728 67.4814 32.7101C65.2825 33.3271 62.862 32.5677 61.1693 31.0807C59.4608 29.5936 58.4483 27.2997 58.5432 25.0217C58.5907 22.4431 60.0461 19.9594 62.2451 18.6147V18.6147ZM65.5198 20.6396C64.5548 20.7978 63.653 21.3357 63.0361 22.0792C61.549 23.851 61.549 26.6828 63.0519 28.4229C63.9061 29.4512 65.2825 30.0207 66.6113 29.8784C67.8611 29.7518 69.0159 28.9608 69.6329 27.8693C70.677 26.0183 70.503 23.503 69.095 21.8894C68.2249 20.8927 66.8328 20.4023 65.5198 20.6396V20.6396Z" fill="#3780FF"/>
<path d="M83.1427 19.4216C85.0411 17.6498 87.9678 17.0487 90.404 17.982C92.7137 18.8521 94.185 21.0511 94.9285 23.3133C91.4956 24.7371 88.0785 26.145 84.6456 27.5688C85.1202 28.4705 85.8479 29.2932 86.8288 29.6254C88.2051 30.1158 89.8503 29.9418 91.0052 29.0242C91.464 28.6762 91.8278 28.2174 92.1758 27.7745C93.0459 28.3598 93.916 28.9293 94.7861 29.5146C93.5522 31.3655 91.4798 32.6628 89.2492 32.8684C86.7813 33.169 84.1552 32.2198 82.5574 30.2898C79.9313 27.2524 80.1844 22.1584 83.1427 19.4216V19.4216ZM84.8355 22.3483C84.2976 23.1235 84.0761 24.0726 84.0919 25.006C86.3858 24.0568 88.6797 23.1076 90.9735 22.1426C90.5939 21.2567 89.6763 20.7188 88.743 20.5765C87.2401 20.3075 85.6739 21.1143 84.8355 22.3483V22.3483Z" fill="#FA3913"/>
</svg>
