<svg width="22" height="22" viewBox="0 0 22 22" fill="none" xmlns="http://www.w3.org/2000/svg">
<path d="M9.17773 20.9033C11.7083 21.3687 14.3209 20.8478 16.4795 19.4474C18.6381 18.047 20.1787 15.8735 20.7851 13.373C21.3915 10.8724 21.0176 8.23465 19.7404 6.00114C18.463 3.76758 16.3791 2.10772 13.9165 1.3623" stroke="white" stroke-width="1.26984" stroke-linecap="round"/>
<path d="M8.22469 1.32031C6.49437 1.81626 4.92865 2.76695 3.69048 4.07341C2.45233 5.37988 1.58699 6.99435 1.18456 8.74873C0.782148 10.5032 0.857356 12.3333 1.40236 14.0489C1.94736 15.7643 2.94223 17.3023 4.28341 18.5029" stroke="white" stroke-width="1.26984" stroke-linecap="round"/>
<path d="M17.0924 12.3947C17.4082 11.0154 17.2465 9.56987 16.634 8.29431C16.0214 7.01879 14.9942 5.98887 13.7201 5.37302C12.4462 4.75716 11.001 4.59183 9.62097 4.90406C8.24083 5.21629 7.00747 5.98758 6.12265 7.09181C5.23784 8.19604 4.75391 9.56779 4.75002 10.9828C4.74613 12.3978 5.2225 13.7722 6.10123 14.8813C6.97995 15.9904 8.20902 16.7685 9.58736 17.0883C10.9658 17.4081 12.4119 17.2507 13.6892 16.6418" stroke="white" stroke-width="1.26984" stroke-linecap="round"/>
<path d="M9.32422 9.23822C9.63783 8.94002 10.0253 8.73113 10.4467 8.6328C10.8681 8.53461 11.3081 8.55058 11.7212 8.67919C12.1344 8.8078 12.5056 9.04447 12.7967 9.36447C13.0878 9.68461 13.2882 10.0767 13.3773 10.5C13.4663 10.9235 13.4406 11.3631 13.303 11.7732C13.1652 12.1835 12.9206 12.5495 12.5941 12.8335C12.2677 13.1175 11.8714 13.3092 11.4462 13.3889C11.0207 13.4685 10.582 13.4332 10.1749 13.2866" stroke="white" stroke-width="1.26984" stroke-linecap="round"/>
</svg>
