<svg width="96" height="48" viewBox="0 0 96 48" fill="none" xmlns="http://www.w3.org/2000/svg">
<path d="M40.4453 18.853C38.7428 18.853 36.8066 19.6421 35.6235 21.2221L35.6243 21.2191L35.6235 21.2199L35.6243 19.101H31.5637V33.8883H35.6235V25.4742C35.6235 23.9599 36.7976 22.35 38.9717 22.35C40.6517 22.35 42.3904 23.5187 42.3904 25.4742V33.8883H46.451V24.7218C46.451 21.3206 44.0176 18.853 40.4453 18.853V18.853ZM75.3106 19.1018L71.6397 29.1743L67.9689 19.1018H63.3304L69.4146 33.8843H73.8641L79.9483 19.1018H75.3106ZM19.4414 23.5564C20.1329 22.6279 21.2344 22.0827 22.5647 22.0827C24.0279 22.0827 25.138 22.9183 25.7119 24.1519L18.6178 27.0951C18.4241 25.5846 18.8106 24.4033 19.4414 23.5564V23.5564ZM27.2424 29.342C25.5334 30.6067 24.5571 30.9084 22.9986 30.9084C21.5961 30.9084 20.498 30.473 19.7239 29.7094L30.1049 25.4029C29.8782 23.7982 29.2691 22.3644 28.3319 21.2743C26.9679 19.6903 24.9491 18.8522 22.491 18.8522C18.0262 18.8522 14.6595 22.146 14.6595 26.4964C14.6595 30.9597 18.0342 34.1397 22.9386 34.1397C25.6864 34.1397 28.4959 32.8374 29.8102 31.3159L27.2424 29.342ZM14.2725 30.1599H5.04373V14.6787H0.927734V33.8883H14.2725V30.1599ZM87.2395 22.3319C84.9719 22.3319 83.3253 24.0503 83.3253 26.4949C83.3253 28.829 85.0695 30.658 87.294 30.658C89.5624 30.658 91.2081 28.8923 91.2081 26.4949C91.2081 24.1608 89.4647 22.3319 87.2395 22.3319V22.3319ZM87.2395 34.1376C82.7988 34.1376 79.3192 30.8292 79.3192 26.4949C79.3192 22.2092 82.8228 18.8522 87.294 18.8522C91.7348 18.8522 95.2135 22.1604 95.2135 26.4949C95.2135 30.7797 91.7106 34.1374 87.2395 34.1374V34.1376ZM55.9769 22.3319C53.7093 22.3319 52.0635 24.0503 52.0635 26.4949C52.0635 28.829 53.807 30.658 56.0321 30.658C58.2997 30.658 59.9454 28.8923 59.9454 26.4949C59.9454 24.1608 58.202 22.3319 55.9769 22.3319ZM55.9769 34.1376C51.5361 34.1376 48.0574 30.8292 48.0574 26.4949C48.0574 22.2092 51.5601 18.8522 56.0321 18.8522C60.4721 18.8522 63.9515 22.1604 63.9515 26.4949C63.9515 30.7797 60.4481 34.1374 55.9769 34.1374" fill="#E60012"/>
</svg>
