<svg width="109" height="48" viewBox="0 0 109 48" fill="none" xmlns="http://www.w3.org/2000/svg">
<path d="M108.855 22.4688V20.5619H106.487V17.5974L106.407 17.6219L104.183 18.3025L104.139 18.3158V20.562H100.629V19.3107C100.629 18.728 100.759 18.2821 101.016 17.9848C101.271 17.691 101.636 17.5416 102.101 17.5416C102.435 17.5416 102.781 17.6204 103.13 17.7757L103.217 17.8147V15.8065L103.176 15.7914C102.851 15.6746 102.409 15.6157 101.861 15.6157C101.17 15.6157 100.543 15.766 99.9953 16.0639C99.4476 16.3622 99.0168 16.7881 98.7151 17.3295C98.4144 17.8703 98.2618 18.4949 98.2618 19.1862V20.5619H96.6129V22.4688H98.2618V30.5022H100.629V22.4688H104.139V27.5738C104.139 29.6764 105.131 30.7418 107.087 30.7418C107.408 30.7418 107.747 30.7042 108.092 30.6304C108.444 30.5547 108.683 30.4791 108.824 30.3983L108.855 30.3799V28.4553L108.759 28.519C108.63 28.6046 108.47 28.6746 108.283 28.7266C108.094 28.7796 107.937 28.8061 107.815 28.8061C107.357 28.8061 107.018 28.6826 106.808 28.439C106.595 28.1931 106.487 27.7632 106.487 27.1617V22.4688H108.855ZM91.3269 28.8064C90.4678 28.8064 89.7904 28.5215 89.3131 27.9604C88.8328 27.3964 88.5894 26.5923 88.5894 25.5707C88.5894 24.5166 88.8328 23.6917 89.3133 23.1177C89.7909 22.5475 90.4618 22.2582 91.3076 22.2582C92.1284 22.2582 92.7817 22.5345 93.2497 23.0801C93.7201 23.6284 93.9588 24.4468 93.9588 25.5131C93.9588 26.5925 93.7343 27.4217 93.2917 27.9763C92.8521 28.5268 92.1911 28.8064 91.3269 28.8064V28.8064ZM91.4321 20.3224C89.793 20.3224 88.4912 20.8027 87.5629 21.75C86.6353 22.6973 86.1649 24.0083 86.1649 25.6469C86.1649 27.2033 86.624 28.4551 87.5296 29.3671C88.4352 30.2795 89.6677 30.7416 91.1925 30.7416C92.7813 30.7416 94.0573 30.2546 94.9851 29.2942C95.9129 28.3349 96.3829 27.0363 96.3829 25.436C96.3829 23.8553 95.9418 22.5941 95.0716 21.6882C94.2009 20.7818 92.9762 20.3224 91.4321 20.3224V20.3224ZM82.3485 20.3224C81.2336 20.3224 80.3113 20.6076 79.6068 21.1699C78.8979 21.7356 78.5384 22.4775 78.5384 23.3752C78.5384 23.8419 78.616 24.2564 78.7687 24.608C78.9224 24.9607 79.1601 25.2713 79.4761 25.532C79.7896 25.7905 80.2735 26.0613 80.9148 26.3369C81.454 26.5587 81.856 26.7464 82.1114 26.8943C82.361 27.0392 82.5382 27.1849 82.6382 27.3268C82.7355 27.4657 82.7848 27.6558 82.7848 27.8903C82.7848 28.5581 82.2847 28.8831 81.2556 28.8831C80.8739 28.8831 80.4385 28.8034 79.9616 28.6462C79.4881 28.4915 79.0411 28.2649 78.6364 27.9743L78.5381 27.9038V30.1828L78.5742 30.1995C78.9091 30.3542 79.3314 30.4845 79.8291 30.5871C80.3259 30.6898 80.7772 30.742 81.1693 30.742C82.3792 30.742 83.3535 30.4555 84.0644 29.8898C84.7799 29.3203 85.1425 28.5609 85.1425 27.6321C85.1425 26.962 84.9473 26.3874 84.5625 25.924C84.1804 25.4644 83.5172 25.0424 82.5922 24.6695C81.8553 24.3737 81.3831 24.1281 81.1884 23.9396C81.0006 23.7576 80.9053 23.5 80.9053 23.1739C80.9053 22.8849 81.023 22.6533 81.2645 22.4657C81.508 22.2772 81.8469 22.1814 82.2719 22.1814C82.6663 22.1814 83.0698 22.2437 83.4711 22.3658C83.8721 22.4879 84.2243 22.6514 84.5183 22.8514L84.615 22.9175V20.7557L84.5779 20.7398C84.3066 20.6235 83.9489 20.5239 83.5145 20.4432C83.082 20.3629 82.6898 20.3224 82.3485 20.3224V20.3224ZM72.3676 28.8064C71.5087 28.8064 70.8311 28.5215 70.3539 27.9604C69.8735 27.3964 69.6306 26.5925 69.6306 25.5707C69.6306 24.5166 69.8738 23.6917 70.3544 23.1177C70.8316 22.5475 71.5024 22.2582 72.3487 22.2582C73.1691 22.2582 73.8224 22.5345 74.2906 23.0801C74.761 23.6284 74.9996 24.4468 74.9996 25.5131C74.9996 26.5925 74.7751 27.4217 74.3324 27.9763C73.8928 28.5268 73.2321 28.8064 72.3676 28.8064V28.8064ZM72.4732 20.3224C70.8336 20.3224 69.5317 20.8027 68.6039 21.75C67.6763 22.6973 67.2056 24.0083 67.2056 25.6469C67.2056 27.2039 67.6651 28.4551 68.5707 29.3671C69.4763 30.2795 70.7086 30.7416 72.2334 30.7416C73.822 30.7416 75.0983 30.2546 76.0262 29.2942C76.9537 28.3349 77.4239 27.0363 77.4239 25.436C77.4239 23.8553 76.9828 22.5941 76.1123 21.6882C75.2414 20.7818 74.0169 20.3224 72.4732 20.3224V20.3224ZM63.6126 22.2833V20.5619H61.2744V30.5019H63.6126V25.4172C63.6126 24.5526 63.8086 23.8423 64.1954 23.3058C64.5773 22.7757 65.0863 22.5071 65.7076 22.5071C65.9182 22.5071 66.1547 22.5418 66.4107 22.6105C66.6641 22.6788 66.8477 22.7529 66.9559 22.831L67.0542 22.9022V20.5449L67.0163 20.5286C66.7986 20.4361 66.4905 20.3894 66.1007 20.3894C65.5132 20.3894 64.9873 20.5783 64.537 20.95C64.1416 21.2767 63.8559 21.7247 63.6374 22.2833H63.6126ZM57.0871 20.3224C56.0144 20.3224 55.0576 20.5524 54.2438 21.0059C53.4283 21.4604 52.7976 22.1092 52.3685 22.9343C51.9413 23.7573 51.7244 24.7188 51.7244 25.7909C51.7244 26.7301 51.9347 27.592 52.3503 28.3516C52.7662 29.1125 53.3549 29.7077 54.1 30.1206C54.8441 30.5329 55.7041 30.7419 56.6562 30.7419C57.7674 30.7419 58.7162 30.5198 59.4768 30.0817L59.5075 30.064V27.9219L59.4093 27.9936C59.0647 28.2446 58.6797 28.445 58.2653 28.5893C57.8521 28.7335 57.4753 28.8064 57.1449 28.8064C56.2275 28.8064 55.4909 28.5193 54.9563 27.9533C54.4205 27.3866 54.1489 26.5908 54.1489 25.5894C54.1489 24.5818 54.4322 23.7655 54.9905 23.1632C55.5471 22.5628 56.285 22.2582 57.1835 22.2582C57.952 22.2582 58.7009 22.5184 59.4095 23.0323L59.5075 23.1036V20.8465L59.4759 20.8286C59.2092 20.6794 58.8456 20.5561 58.3941 20.4627C57.9446 20.3694 57.5049 20.3224 57.0871 20.3224V20.3224ZM50.114 20.562H47.7758V30.5019H50.114V20.562V20.562ZM48.9688 16.3275C48.584 16.3275 48.2484 16.4585 47.9726 16.7181C47.6957 16.9784 47.5552 17.3062 47.5552 17.6931C47.5552 18.0738 47.694 18.3956 47.9683 18.649C48.2408 18.9017 48.5775 19.0298 48.9689 19.0298C49.3603 19.0298 49.6982 18.9017 49.974 18.6494C50.2515 18.3956 50.3923 18.0739 50.3923 17.6931C50.3923 17.3198 50.2553 16.9953 49.9854 16.7286C49.7157 16.4624 49.3736 16.3275 48.9688 16.3275ZM43.1349 19.8286V30.5019H45.5211V16.6318H42.2185L38.0206 26.9341L33.9469 16.6318H30.5098V30.5018H32.7522V19.8276H32.8292L37.131 30.5019H38.8233L43.0579 19.8286H43.1349V19.8286Z" fill="#706D6E"/>
<path d="M11.4272 22.9966H0.427734V11.9971H11.4272V22.9966Z" fill="#F1511B"/>
<path d="M23.5735 22.9966H12.5742V11.9971H23.5735V22.9966Z" fill="#80CC28"/>
<path d="M11.4269 35.1454H0.427734V24.146H11.4269V35.1454Z" fill="#00ADEF"/>
<path d="M23.5735 35.1454H12.5742V24.146H23.5735V35.1454Z" fill="#FBBC09"/>
</svg>
