<svg width="39" height="27" viewBox="0 0 39 27" fill="none" xmlns="http://www.w3.org/2000/svg">
<g clip-path="url(#clip0_166_4498)">
<path d="M17.0157 21.4767H19.5079M25.7384 17.7384V21.2275C25.7384 22.6233 25.7384 23.3212 25.4668 23.8543C25.2279 24.3232 24.8466 24.7045 24.3777 24.9434C23.8446 25.2151 23.1467 25.2151 21.7509 25.2151H14.7727C13.3769 25.2151 12.679 25.2151 12.1459 24.9434C11.677 24.7045 11.2957 24.3232 11.0568 23.8543C10.7852 23.3212 10.7852 22.6233 10.7852 21.2275V6.77269C10.7852 5.37693 10.7852 4.67904 11.0568 4.14593C11.2957 3.67698 11.677 3.29572 12.1459 3.05679C12.679 2.78516 13.3769 2.78516 14.7727 2.78516H18.2618M23.2462 7.83225C24.4436 8.07645 25.5427 8.66736 26.4068 9.53146C27.2709 10.3956 27.8618 11.4947 28.106 12.6921M23.2462 12.6919H23.2587M23.2462 2.78516C25.7768 3.0666 28.1363 4.2008 29.9367 6.00121C31.7372 7.80163 32.8713 10.1611 33.1528 12.6917" stroke="white" stroke-width="2.49221" stroke-linecap="round" stroke-linejoin="round"/>
</g>
<defs>
<clipPath id="clip0_166_4498">
<rect width="39" height="27" fill="white"/>
</clipPath>
</defs>
</svg>
