<svg width="96" height="48" viewBox="0 0 96 48" fill="none" xmlns="http://www.w3.org/2000/svg">
<path d="M13.7497 35.5264C12.3314 35.7754 10.8881 35.8501 9.39508 36.049L4.84119 22.7112V36.6214C3.42285 36.7707 2.12891 36.9697 0.785156 37.1688V11.6875H4.56763L9.7434 26.1454V11.6875H13.7497V35.5264ZM21.5882 21.019C23.1311 21.019 25.4951 20.9444 26.9134 20.9444V24.9257C25.1466 24.9257 23.0813 24.9257 21.5882 25.0004V30.9229C23.9274 30.7737 26.2665 30.5744 28.6304 30.4997V34.3317L17.6067 35.2028V11.6875H28.6304V15.669H21.5882V21.019ZM43.4364 15.6691H39.3057V33.9837C37.9619 33.9837 36.6181 33.9837 35.3244 34.0334V15.6691H31.1937V11.6875H43.4366L43.4364 15.6691V15.6691ZM49.9062 20.7454H55.3559V24.7268H49.9062V33.7598H45.9991V11.6875H57.1226V15.669H49.9062V20.7454ZM63.5924 30.2759C65.8569 30.3255 68.1461 30.5 70.3609 30.6242V34.556C66.8026 34.3319 63.2441 34.1082 59.6111 34.0334V11.6875H63.5924V30.2759ZM73.7202 34.8297C74.9893 34.9045 76.3331 34.9792 77.627 35.1282V11.6875H73.7202V34.8297ZM95.0709 11.6875L90.0193 23.8061L95.0709 37.1688C93.5777 36.9697 92.0847 36.696 90.5916 36.4471L87.73 29.0816L84.8189 35.8501C83.3753 35.601 81.9818 35.5264 80.5388 35.3273L85.6649 23.6567L81.0363 11.6875H85.3162L87.929 18.3813L90.7161 11.6875H95.0709Z" fill="#D81F26"/>
</svg>
