<svg width="29" height="24" viewBox="0 0 29 24" fill="none" xmlns="http://www.w3.org/2000/svg">
<path d="M12.7603 0.422852C10.6185 0.422852 8.63396 0.96321 6.80657 2.04393C5.03813 3.08534 3.63319 4.49027 2.59178 6.25872C1.51106 8.08611 0.970703 10.0707 0.970703 12.2125C0.970703 14.3543 1.51106 16.3389 2.59178 18.1662C3.63319 19.9347 5.03813 21.3396 6.80657 22.381C8.63396 23.4618 10.6185 24.0021 12.7603 24.0021C14.3323 24.0021 15.8355 23.7025 17.2699 23.1031C18.7043 22.5038 19.9717 21.654 21.072 20.5536C22.1724 19.4533 23.0271 18.1859 23.6363 16.7515H28.0279V7.70295H23.6363C23.0271 6.26854 22.1724 5.00116 21.072 3.90079C19.9717 2.80043 18.7043 1.94568 17.2699 1.33655C15.8355 0.727417 14.3323 0.422852 12.7603 0.422852ZM12.7603 3.93027C14.1554 3.93027 15.4719 4.26922 16.7099 4.94712C17.9478 5.62503 18.9401 6.54363 19.6867 7.70295H12.7603C11.9351 7.70295 11.1786 7.90435 10.4908 8.30717C9.8031 8.70998 9.25783 9.26016 8.85502 9.95771C8.45221 10.6553 8.2508 11.4118 8.2508 12.2272C8.2508 13.0427 8.45221 13.7943 8.85502 14.482C9.25783 15.1697 9.8031 15.7199 10.4908 16.1325C11.1786 16.5452 11.9351 16.7515 12.7603 16.7515H19.7162C18.9499 17.9108 17.9527 18.8294 16.7246 19.5073C15.4965 20.1852 14.1751 20.5242 12.7603 20.5242C11.267 20.5242 9.87187 20.141 8.57501 19.3747C7.31745 18.6477 6.32516 17.6554 5.59813 16.3978C4.85146 15.1206 4.47812 13.7304 4.47812 12.2272C4.47812 10.724 4.85146 9.32402 5.59813 8.02716C6.32516 6.78925 7.31745 5.80678 8.57501 5.07975C9.87187 4.31343 11.267 3.93027 12.7603 3.93027ZM12.7603 11.1809H24.5205V13.2441H12.7603C12.4852 13.2441 12.2445 13.1409 12.0382 12.9346C11.8319 12.7283 11.7287 12.4876 11.7287 12.2125C11.7287 11.9374 11.827 11.6967 12.0235 11.4904C12.22 11.284 12.4656 11.1809 12.7603 11.1809Z" fill="white"/>
</svg>
