<svg width="39" height="39" viewBox="0 0 39 39" fill="none" xmlns="http://www.w3.org/2000/svg">
<g clip-path="url(#clip0_166_4487)">
<path d="M25.4116 7.70097C25.4116 8.16901 25.7911 8.54843 26.2591 8.54843H30.2513L21.8453 16.9544V14.4806C21.8453 14.0126 21.4659 13.6332 20.9978 13.6332C20.5298 13.6332 20.1504 14.0126 20.1504 14.4806V19.0004C20.1504 19.4684 20.5298 19.8479 20.9978 19.8479H25.5176C25.9856 19.8479 26.3651 19.4684 26.3651 19.0004C26.3651 18.5324 25.9856 18.153 25.5176 18.153H23.0438L31.4498 9.74692V13.7391C31.4498 14.2071 31.8293 14.5866 32.2973 14.5866C32.7653 14.5866 33.1447 14.2071 33.1447 13.7391V7.70097C33.1447 7.23294 32.7653 6.85352 32.2973 6.85352H26.2591C25.7911 6.85352 25.4116 7.23294 25.4116 7.70097Z" fill="white"/>
<path d="M29.7575 13.8371C29.8088 15.1923 30.9209 16.276 32.2872 16.2817C32.2981 17.1021 32.2981 18.0048 32.2981 19.0006C32.2981 24.3272 32.2981 26.9905 30.6433 28.6452C28.9886 30.3 26.3252 30.3 20.9987 30.3C15.672 30.3 13.0087 30.3 11.354 28.6452C9.69922 26.9905 9.69922 24.3272 9.69922 19.0006C9.69922 13.674 9.69922 11.0107 11.354 9.35594C13.0087 7.70117 15.672 7.70117 20.9987 7.70117C21.9945 7.70117 22.8972 7.70117 23.7176 7.71199C23.7233 9.07839 24.8069 10.1904 26.1622 10.2417L23.1984 13.2054C22.7582 12.4478 21.938 11.9385 20.9987 11.9385C19.5946 11.9385 18.4563 13.0767 18.4563 14.4808V19.0006C18.4563 20.4047 19.5946 21.543 20.9987 21.543H25.5184C26.9225 21.543 28.0608 20.4047 28.0608 19.0006C28.0608 18.0613 27.5514 17.2411 26.7939 16.8008L29.7575 13.8371Z" fill="white"/>
</g>
<defs>
<clipPath id="clip0_166_4487">
<rect width="39" height="39" fill="white"/>
</clipPath>
</defs>
</svg>
