<svg width="22" height="28" viewBox="0 0 22 28" fill="none" xmlns="http://www.w3.org/2000/svg">
<path d="M10.8633 0.942379L1.1896 4.97396C1.09266 5.01378 1.00981 5.08164 0.951676 5.16885C0.89354 5.25605 0.862763 5.35863 0.863288 5.46343V14.0582C0.863643 16.1462 1.40669 18.1983 2.43916 20.0132C3.47164 21.8281 4.9581 23.3435 6.75276 24.4108L11.058 26.9687L15.3001 24.4161C17.0804 23.3463 18.5535 21.834 19.5763 20.0264C20.5991 18.2187 21.1367 16.1772 21.137 14.1003V4.96869C21.1373 4.86116 21.1047 4.75609 21.0436 4.66764C20.9824 4.57919 20.8956 4.5116 20.7949 4.47396L11.2528 0.937116C11.127 0.888998 10.9877 0.890882 10.8633 0.942379Z" stroke="white" stroke-width="1.57895"/>
<path d="M5.74219 14.79L9.65271 17.7479L16.558 8.04785" stroke="white" stroke-width="1.57895"/>
</svg>
