<svg width="37" height="46" viewBox="0 0 37 46" fill="none" xmlns="http://www.w3.org/2000/svg">
<g clip-path="url(#clip0_166_4452)">
<path d="M26.0287 13.0422L19.0981 10.445C17.9454 10.0144 16.0565 10.0144 14.9037 10.445L7.97309 13.0422C6.37587 13.6394 5.07031 15.5283 5.07031 17.2228V27.5422C5.07031 29.1811 6.15365 31.3339 7.47309 32.32L13.4453 36.7783C15.4037 38.2505 18.6259 38.2505 20.5843 36.7783L26.5565 32.32C27.8759 31.3339 28.9593 29.1811 28.9593 27.5422V17.2228C28.9315 15.5283 27.6259 13.6394 26.0287 13.0422ZM16.9037 17.0978C18.5426 17.0978 19.8759 18.4311 19.8759 20.07C19.8759 21.6811 18.612 22.9728 17.0148 23.0283H16.987H16.9593C16.9315 23.0283 16.9037 23.0283 16.8759 23.0283C15.2093 22.9728 13.9592 21.6811 13.9592 20.07C13.9453 18.4311 15.2787 17.0978 16.9037 17.0978ZM20.0426 30.0561C19.1954 30.6116 18.0981 30.9033 17.0009 30.9033C15.9037 30.9033 14.7926 30.6255 13.9592 30.0561C13.1675 29.5283 12.737 28.8061 12.7231 28.0144C12.7231 27.2366 13.1675 26.4866 13.9592 25.9589C15.6398 24.8478 18.3759 24.8478 20.0565 25.9589C20.8481 26.4866 21.2926 27.2089 21.2926 28.0005C21.2787 28.7783 20.8343 29.5283 20.0426 30.0561Z" fill="white"/>
</g>
<defs>
<clipPath id="clip0_166_4452">
<rect width="37" height="46" fill="white"/>
</clipPath>
</defs>
</svg>
