<svg width="96" height="48" viewBox="0 0 96 48" fill="none" xmlns="http://www.w3.org/2000/svg">
<path fill-rule="evenodd" clip-rule="evenodd" d="M30.9492 30.4395L32.1259 27.7052C33.3969 28.6556 35.0902 29.1497 36.761 29.1497C37.9942 29.1497 38.7749 28.6745 38.7749 27.9541C38.7561 25.9402 31.3867 27.5167 31.3301 22.4667C31.3113 19.9022 33.5892 17.9259 36.8176 17.9259C38.7372 17.9259 40.6531 18.4011 42.0221 19.4835L40.9209 22.2744C39.6688 21.4748 38.1112 20.9054 36.629 20.9054C35.622 20.9054 34.9582 21.3806 34.9582 21.9878C34.9771 23.964 42.403 22.8816 42.4785 27.7052C42.4785 30.3264 40.2571 32.1706 37.0665 32.1706C34.7282 32.1668 32.5822 31.6162 30.9492 30.4395V30.4395ZM76.1347 26.7171C75.5464 27.7429 74.4451 28.4444 73.1704 28.4444C71.2884 28.4444 69.7723 26.9246 69.7723 25.0464C69.7723 23.1682 71.2922 21.6483 73.1704 21.6483C74.4413 21.6483 75.5464 22.3498 76.1347 23.3756L79.3819 21.5729C78.1675 19.4081 75.8292 17.9259 73.1704 17.9259C69.2368 17.9259 66.0461 21.1166 66.0461 25.0502C66.0461 28.9837 69.2368 32.1744 73.1704 32.1744C75.8481 32.1744 78.1675 30.7111 79.3819 28.5274L76.1347 26.7171ZM44.1115 12.0161H48.1771V31.9028H44.1115V12.0161ZM80.9772 12.0161V31.9028H85.0428V25.9364L89.8665 31.9028H95.071L88.9349 24.8163L94.6147 18.205H89.6364L85.039 23.6924V12.0161H80.9772Z" fill="black"/>
<path d="M60.2561 26.755C59.6678 27.7243 58.4534 28.4446 57.0844 28.4446C55.2024 28.4446 53.6863 26.9247 53.6863 25.0466C53.6863 23.1684 55.2062 21.6485 57.0844 21.6485C58.4534 21.6485 59.6678 22.4066 60.2561 23.3947V26.755ZM60.2561 18.209V19.8232C59.5924 18.703 57.9405 17.9224 56.2094 17.9224C52.6378 17.9224 49.8281 21.0753 49.8281 25.0277C49.8281 28.9802 52.6378 32.1708 56.2094 32.1708C57.9367 32.1708 59.5886 31.3939 60.2561 30.27V31.8842H64.3217V18.209H60.2561Z" fill="black"/>
<path fill-rule="evenodd" clip-rule="evenodd" d="M5.82069 26.7365C5.82069 28.1244 4.70057 29.2445 3.31269 29.2445C1.9248 29.2445 0.804688 28.1206 0.804688 26.7365C0.804688 25.3524 1.9248 24.2285 3.31269 24.2285H5.82069V26.7365ZM7.0728 26.7365C7.0728 25.3486 8.19291 24.2285 9.5808 24.2285C10.9687 24.2285 12.0888 25.3486 12.0888 26.7365V33.0046C12.0888 34.3925 10.9687 35.5127 9.5808 35.5127C8.19291 35.5127 7.0728 34.3925 7.0728 33.0046V26.7365Z" fill="#E01E5A"/>
<path fill-rule="evenodd" clip-rule="evenodd" d="M9.58013 16.6703C8.19224 16.6703 7.07213 15.5502 7.07213 14.1623C7.07213 12.7744 8.19224 11.6543 9.58013 11.6543C10.968 11.6543 12.0881 12.7744 12.0881 14.1623V16.6703H9.58013ZM9.58013 17.9413C10.968 17.9413 12.0881 19.0614 12.0881 20.4493C12.0881 21.8372 10.968 22.9573 9.58013 22.9573H3.29316C1.90527 22.9573 0.785156 21.8334 0.785156 20.4493C0.785156 19.0652 1.90527 17.9413 3.29316 17.9413H9.58013Z" fill="#36C5F0"/>
<path fill-rule="evenodd" clip-rule="evenodd" d="M19.6275 20.4493C19.6275 19.0614 20.7476 17.9413 22.1355 17.9413C23.5234 17.9413 24.6435 19.0614 24.6435 20.4493C24.6435 21.8372 23.5234 22.9573 22.1355 22.9573H19.6275V20.4493ZM18.3754 20.4493C18.3754 21.8372 17.2553 22.9573 15.8674 22.9573C14.4795 22.9573 13.3594 21.8372 13.3594 20.4493V14.1623C13.3594 12.7744 14.4795 11.6543 15.8674 11.6543C17.2553 11.6543 18.3754 12.7744 18.3754 14.1623V20.4493Z" fill="#2EB67D"/>
<path fill-rule="evenodd" clip-rule="evenodd" d="M15.8674 30.4966C17.2553 30.4966 18.3754 31.6168 18.3754 33.0046C18.3754 34.3925 17.2553 35.5127 15.8674 35.5127C14.4795 35.5127 13.3594 34.3925 13.3594 33.0046V30.4966H15.8674ZM15.8674 29.2445C14.4795 29.2445 13.3594 28.1244 13.3594 26.7365C13.3594 25.3486 14.4795 24.2285 15.8674 24.2285H22.1543C23.5422 24.2285 24.6623 25.3486 24.6623 26.7365C24.6623 28.1244 23.5422 29.2445 22.1543 29.2445H15.8674Z" fill="#ECB22E"/>
</svg>
