<svg width="64" height="64" viewBox="0 0 64 64" fill="none" xmlns="http://www.w3.org/2000/svg">
<path d="M41.944 38.3509L32.6887 43.6186C32.1963 43.914 31.5563 43.914 31.064 43.6186L21.8579 38.3509C21.464 38.154 21.464 37.6617 21.8579 37.4648L24.024 36.234C24.1717 36.1355 24.3687 36.1355 24.5163 36.234L30.1287 39.434C30.6702 39.7294 31.261 39.8771 31.901 39.8771C32.541 39.8771 33.1317 39.7294 33.6733 39.434L39.2856 36.234C39.4333 36.1355 39.6302 36.1355 39.7779 36.234L41.944 37.4648C42.3379 37.6617 42.3379 38.154 41.944 38.3509Z" fill="white"/>
<path d="M41.944 32.4437L32.6887 37.7114C32.1963 38.0068 31.5563 38.0068 31.064 37.7114L21.8579 32.4437C21.464 32.2468 21.464 31.7545 21.8579 31.5575L24.024 30.3268C24.1717 30.2283 24.3687 30.2283 24.5163 30.3268L30.1287 33.5268C30.6702 33.8222 31.261 33.9699 31.901 33.9699C32.541 33.9699 33.1317 33.8222 33.6733 33.5268L39.2856 30.3268C39.4333 30.2283 39.6302 30.2283 39.7779 30.3268L41.944 31.5575C42.3379 31.7545 42.3379 32.2468 41.944 32.4437Z" fill="white"/>
<path d="M31.1621 31.8032L21.9067 26.5355C21.5129 26.3386 21.5129 25.8463 21.9067 25.6494L31.1621 20.3817C31.6544 20.0863 32.2944 20.0863 32.7867 20.3817L42.0421 25.6494C42.4359 25.8463 42.4359 26.3386 42.0421 26.5355L32.7867 31.8032C32.2944 32.0494 31.6544 32.0494 31.1621 31.8032Z" fill="white"/>
</svg>
