<svg width="30" height="30" viewBox="0 0 30 30" fill="none" xmlns="http://www.w3.org/2000/svg">
<path d="M24.32 8.36004C24.3925 8.54797 24.5201 8.70963 24.686 8.82383C24.852 8.93802 25.0486 8.99944 25.25 9.00004C25.3733 8.9991 25.4953 8.97536 25.61 8.93004C25.8562 8.83396 26.0543 8.64435 26.1611 8.40263C26.2679 8.16091 26.2747 7.88674 26.18 7.64004C25.7174 6.45517 25.0693 5.35139 24.26 4.37004C24.0862 4.1842 23.8481 4.07159 23.5942 4.05515C23.3403 4.03871 23.0897 4.11968 22.8934 4.28157C22.6971 4.44345 22.5699 4.67407 22.5377 4.92647C22.5054 5.17886 22.5706 5.43404 22.72 5.64004C23.3939 6.45631 23.934 7.3744 24.32 8.36004ZM21 4.00004C21.2652 4.00004 21.5196 3.89468 21.7071 3.70714C21.8946 3.51961 22 3.26525 22 3.00004C21.9956 2.86558 21.9641 2.7334 21.9074 2.6114C21.8507 2.4894 21.7699 2.3801 21.67 2.29004C21.5848 2.19758 21.4811 2.124 21.3657 2.07405C21.2503 2.0241 21.1257 1.99889 21 2.00004C20.7348 2.00004 20.4804 2.10539 20.2929 2.29293C20.1054 2.48047 20 2.73482 20 3.00004C20.0039 3.14435 20.039 3.28611 20.1028 3.41557C20.1667 3.54504 20.2578 3.65914 20.37 3.75004C20.5445 3.90417 20.7673 3.99258 21 4.00004ZM8 12C8 13.3845 8.41054 14.7379 9.17971 15.889C9.94888 17.0402 11.0421 17.9374 12.3212 18.4672C13.6003 18.997 15.0078 19.1356 16.3656 18.8655C17.7235 18.5954 18.9708 17.9288 19.9497 16.9498C20.9287 15.9708 21.5954 14.7235 21.8655 13.3657C22.1356 12.0078 21.997 10.6003 21.4672 9.32125C20.9373 8.04217 20.0401 6.94892 18.889 6.17975C17.7378 5.41058 16.3845 5.00004 15 5.00004C13.1435 5.00004 11.363 5.73754 10.0503 7.05029C8.7375 8.36305 8 10.1435 8 12ZM20 12C20 12.9889 19.7068 13.9556 19.1573 14.7779C18.6079 15.6001 17.827 16.241 16.9134 16.6194C15.9998 16.9979 14.9945 17.0969 14.0245 16.904C13.0546 16.711 12.1637 16.2348 11.4645 15.5356C10.7652 14.8363 10.289 13.9454 10.0961 12.9755C9.90315 12.0056 10.0022 11.0003 10.3806 10.0866C10.759 9.17299 11.3999 8.3921 12.2221 7.84269C13.0444 7.29328 14.0111 7.00004 15 7.00004C16.3261 7.00004 17.5979 7.52682 18.5355 8.4645C19.4732 9.40219 20 10.674 20 12Z" fill="white"/>
<path d="M29.71 25.2897L24.16 19.7397C25.9956 17.5788 27.0023 14.8351 27 11.9997C27 11.7345 26.8946 11.4802 26.7071 11.2926C26.5195 11.1051 26.2652 10.9997 26 10.9997C25.7347 10.9997 25.4804 11.1051 25.2928 11.2926C25.1053 11.4802 25 11.7345 25 11.9997C24.9987 13.6257 24.601 15.2269 23.8412 16.6645C23.0815 18.1021 21.9827 19.3327 20.64 20.2497L19.64 20.8497C18.2111 21.6029 16.6202 21.9965 15.005 21.9965C13.3897 21.9965 11.7988 21.6029 10.37 20.8497L9.36996 20.2497C7.42204 18.9078 6.01291 16.9187 5.39291 14.636C4.7729 12.3532 4.98217 9.9246 5.98353 7.78157C6.98489 5.63854 8.7135 3.91985 10.8623 2.93086C13.011 1.94187 15.4408 1.7466 17.72 2.37975C17.8493 2.42671 17.9869 2.4465 18.1242 2.43785C18.2615 2.42921 18.3955 2.39233 18.5179 2.32952C18.6403 2.26672 18.7484 2.17933 18.8355 2.07283C18.9226 1.96633 18.9868 1.84301 19.024 1.71057C19.0612 1.57814 19.0708 1.43945 19.052 1.30317C19.0332 1.16689 18.9864 1.03595 18.9147 0.918552C18.843 0.801151 18.7479 0.699809 18.6352 0.620865C18.5225 0.54192 18.3948 0.487072 18.26 0.459749C15.7908 -0.228938 13.166 -0.108859 10.7701 0.802396C8.37417 1.71365 6.333 3.36819 4.94559 5.52365C3.55818 7.6791 2.89745 10.2222 3.0602 12.7804C3.22294 15.3386 4.2006 17.7775 5.84996 19.7397L0.289956 25.2897C0.148927 25.4296 0.0527466 25.6083 0.0136769 25.8031C-0.0253927 25.9978 -0.00558135 26.1998 0.0705854 26.3832C0.146752 26.5667 0.275823 26.7233 0.441343 26.8331C0.606863 26.9429 0.801332 27.0009 0.999956 26.9997H4.27996L5.04996 29.3197C5.10353 29.4821 5.19784 29.6281 5.3239 29.7436C5.44995 29.8592 5.60353 29.9405 5.76996 29.9797L5.99996 29.9997C6.13156 30.0005 6.26203 29.9753 6.38386 29.9255C6.5057 29.8758 6.61652 29.8024 6.70996 29.7097L12.65 23.7697C14.2011 24.0819 15.7988 24.0819 17.35 23.7697L23.29 29.7097C23.3834 29.8024 23.4942 29.8758 23.616 29.9255C23.7379 29.9753 23.8683 30.0005 24 29.9997H24.23C24.3964 29.9605 24.55 29.8792 24.676 29.7636C24.8021 29.6481 24.8964 29.5021 24.95 29.3397L25.72 26.9997H29C29.1986 27.0009 29.393 26.9429 29.5586 26.8331C29.7241 26.7233 29.8532 26.5667 29.9293 26.3832C30.0055 26.1998 30.0253 25.9978 29.9862 25.8031C29.9472 25.6083 29.851 25.4296 29.71 25.2897ZM10.39 23.1997L6.38996 27.1997L5.89996 25.7397C5.84608 25.5378 5.73029 25.3579 5.56887 25.2251C5.40744 25.0924 5.20848 25.0136 4.99996 24.9997H3.40996L7.14996 21.2597L8.25996 21.9197C8.62712 22.1673 9.0077 22.3943 9.39996 22.5997L10.39 23.1997ZM25 24.9997C24.7903 24.9992 24.5858 25.0646 24.4153 25.1866C24.2449 25.3086 24.117 25.4811 24.05 25.6797L23.56 27.1397L19.56 23.1397L20.56 22.5497C20.9522 22.3443 21.3328 22.1173 21.7 21.8697L22.81 21.2097L26.59 24.9997H25Z" fill="white"/>
</svg>
