<svg width="96" height="48" viewBox="0 0 96 48" fill="none" xmlns="http://www.w3.org/2000/svg">
<path fill-rule="evenodd" clip-rule="evenodd" d="M27.7114 13.6736C29.0078 14.0228 30.0267 15.0416 30.3711 16.3333C30.9978 18.6772 30.9978 23.571 30.9978 23.571C30.9978 23.571 30.9978 28.4646 30.3711 30.8086C30.0219 32.1049 29.0031 33.1239 27.7114 33.4683C25.3674 34.095 15.9628 34.095 15.9628 34.095C15.9628 34.095 6.56292 34.095 4.21413 33.4683C2.9178 33.1191 1.89885 32.1002 1.55446 30.8086C0.927734 28.4646 0.927734 23.5709 0.927734 23.5709C0.927734 23.5709 0.927734 18.6772 1.55446 16.3333C1.90367 15.0369 2.92262 14.018 4.21413 13.6736C6.56292 13.0469 15.9628 13.0469 15.9628 13.0469C15.9628 13.0469 25.3674 13.0469 27.7114 13.6736ZM20.7679 23.5712L12.9562 28.0822V19.0602L20.7679 23.5712Z" fill="#FF0000"/>
<path fill-rule="evenodd" clip-rule="evenodd" d="M44.5751 32.1954C43.9819 31.7936 43.5562 31.1717 43.3075 30.3251C43.0586 29.4783 42.9294 28.3542 42.9294 26.9477V25.0343C42.9294 23.6136 43.073 22.4751 43.36 21.6139C43.647 20.7529 44.0967 20.1263 44.7042 19.734C45.3117 19.3418 46.1107 19.1409 47.1008 19.1409C48.0767 19.1409 48.8565 19.3418 49.4448 19.7436C50.0332 20.1454 50.4637 20.7721 50.7364 21.6235C51.0091 22.4751 51.1431 23.6136 51.1431 25.0295V26.943C51.1431 28.3494 51.0091 29.4783 50.7459 30.3298C50.4829 31.1812 50.0525 31.808 49.4544 32.2002C48.8612 32.5924 48.0527 32.7935 47.0338 32.7935C45.991 32.7981 45.1682 32.5972 44.5751 32.1954V32.1954ZM47.9092 30.1289C48.0719 29.6984 48.1581 28.9951 48.1581 28.0241V23.915C48.1581 22.9677 48.0767 22.2789 47.9092 21.8389C47.7467 21.4035 47.4548 21.1835 47.0386 21.1835C46.6369 21.1835 46.3545 21.4035 46.1872 21.8389C46.0245 22.2741 45.9385 22.9677 45.9385 23.915V28.0241C45.9385 28.9999 46.015 29.7032 46.1728 30.1289C46.3307 30.5595 46.6177 30.7747 47.0339 30.7747C47.4548 30.7747 47.7419 30.5595 47.9092 30.1289V30.1289ZM90.2445 26.9812V27.6463C90.2445 28.4929 90.2685 29.1243 90.3212 29.55C90.3689 29.9711 90.4742 30.2819 90.6321 30.4734C90.7899 30.6647 91.0338 30.7652 91.3638 30.7652C91.8089 30.7652 92.1149 30.593 92.2776 30.2484C92.4403 29.9041 92.531 29.33 92.5455 28.5264L95.1047 28.6747C95.1191 28.7894 95.1238 28.9473 95.1238 29.1482C95.1238 30.3681 94.7889 31.2769 94.124 31.8797C93.4591 32.4824 92.5168 32.7838 91.297 32.7838C89.8331 32.7838 88.8095 32.3245 88.2211 31.4061C87.6327 30.4876 87.341 29.0716 87.341 27.1487V24.8478C87.341 22.8674 87.647 21.4274 88.2545 20.5139C88.862 19.6049 89.9048 19.1504 91.3831 19.1504C92.402 19.1504 93.1817 19.3371 93.727 19.7101C94.2724 20.0832 94.6551 20.662 94.8799 21.4514C95.1 22.2406 95.2148 23.3314 95.2148 24.7186V26.9765H90.2445V26.9812ZM90.6224 21.4322C90.4741 21.6189 90.3737 21.9249 90.321 22.3459C90.2684 22.7669 90.2445 23.4127 90.2445 24.2689V25.2161H92.4163V24.2689C92.4163 23.4221 92.3876 22.7812 92.3301 22.3459C92.2728 21.9106 92.1676 21.5997 92.0192 21.4227C91.8709 21.2457 91.6365 21.1548 91.3208 21.1548C91.0051 21.15 90.7707 21.2457 90.6224 21.4322ZM37.3517 26.7325L33.9746 14.539H36.9212L38.1028 20.0642C38.4042 21.4275 38.6242 22.5851 38.7677 23.5466H38.8538C38.9543 22.8577 39.1743 21.7049 39.5188 20.0832L40.7433 14.5342H43.69L40.2746 26.7325V32.5829H37.3517V26.7325ZM60.7247 19.3992V32.5781H58.4045L58.1462 30.966H58.084C57.4526 32.1858 56.5055 32.7934 55.2473 32.7934C54.372 32.7934 53.7261 32.5064 53.31 31.9323C52.8938 31.3583 52.6881 30.4638 52.6881 29.244V19.3992H55.654V29.0765C55.654 29.6649 55.7162 30.0859 55.8454 30.3346C55.9745 30.5833 56.1898 30.7125 56.4911 30.7125C56.7495 30.7125 56.9982 30.6359 57.2326 30.4781C57.4669 30.3203 57.644 30.1193 57.7588 29.8754V19.3991L60.7247 19.3992ZM75.9462 19.3992V32.5781H73.6261L73.3678 30.966H73.3056C72.6742 32.1858 71.727 32.7934 70.4689 32.7934C69.5936 32.7934 68.9477 32.5064 68.5316 31.9323C68.1154 31.3583 67.9097 30.4638 67.9097 29.244V19.3992H70.8756V29.0765C70.8756 29.6649 70.9378 30.0859 71.0669 30.3346C71.196 30.5833 71.4113 30.7125 71.7127 30.7125C71.9711 30.7125 72.2198 30.6359 72.4541 30.4781C72.6885 30.3203 72.8655 30.1193 72.9804 29.8754V19.3991L75.9462 19.3992Z" fill="#282828"/>
<path fill-rule="evenodd" clip-rule="evenodd" d="M68.7912 16.9265H65.8445V32.5785H62.9408V16.9265H59.9941V14.5396H68.7864V16.9265H68.7912ZM85.7684 21.5091C85.5866 20.6769 85.2996 20.0741 84.8977 19.701C84.496 19.3279 83.9459 19.1413 83.2425 19.1413C82.6974 19.1413 82.1902 19.2944 81.7167 19.6054C81.2431 19.9114 80.8795 20.3181 80.6212 20.8204H80.5973V13.8745H77.7367V32.5833H80.1858L80.4872 31.3348H80.5495C80.7791 31.7797 81.1234 32.1289 81.5827 32.3872C82.0419 32.6455 82.5491 32.7747 83.1087 32.7747C84.1133 32.7747 84.8499 32.3106 85.3236 31.3874C85.797 30.4642 86.0315 29.0196 86.0315 27.0535V24.9677C86.0363 23.4944 85.9454 22.3416 85.7684 21.5093V21.5091ZM83.0465 26.886C83.0465 27.8476 83.0082 28.5985 82.927 29.1439C82.8503 29.6893 82.7165 30.0767 82.5299 30.3064C82.3433 30.5359 82.0946 30.6508 81.7788 30.6508C81.5348 30.6508 81.3101 30.5934 81.0996 30.4786C80.8939 30.3637 80.7217 30.1915 80.5925 29.9619V22.4756C80.693 22.1167 80.8652 21.825 81.1092 21.5954C81.3531 21.3658 81.6162 21.2509 81.9032 21.2509C82.2046 21.2509 82.4389 21.3705 82.6016 21.6048C82.7643 21.8393 82.8791 22.2411 82.946 22.796C83.0083 23.3557 83.0417 24.1498 83.0417 25.1829V26.886H83.0465Z" fill="#282828"/>
</svg>
